<svg id="color" height="512" viewBox="0 0 24 24" width="512" xmlns="http://www.w3.org/2000/svg"><path d="m13.467 24h-2.935c-.953 0-1.729-.775-1.729-1.728v-4.728l-4.099 2.365c-.832.465-1.887.181-2.363-.634l-1.469-2.547c-.232-.398-.294-.866-.172-1.315.121-.443.407-.815.806-1.047l4.094-2.366-4.091-2.364c-.401-.234-.687-.606-.808-1.049-.122-.448-.06-.917.174-1.318l1.465-2.54c.478-.817 1.535-1.103 2.358-.641l4.106 2.369v-4.729c0-.953.776-1.728 1.729-1.728h2.935c.953 0 1.729.775 1.729 1.728v4.728l4.099-2.365c.829-.466 1.887-.181 2.363.634l1.469 2.547c.232.398.294.866.172 1.315-.121.443-.407.815-.806 1.047l-4.094 2.366 4.091 2.364c.401.234.687.606.808 1.049.122.449.061.917-.174 1.318l-1.465 2.541c-.478.818-1.534 1.104-2.358.641l-4.106-2.369v4.728c0 .953-.776 1.728-1.729 1.728z" fill="#f44336"/><path d="m12 0h-1.467c-.953 0-1.729.775-1.729 1.728v4.728l-4.106-2.369c-.266-.149-.558-.22-.846-.22-.601 0-1.188.31-1.512.862l-1.465 2.54c-.234.401-.296.87-.174 1.318.121.443.407.815.808 1.049l4.091 2.364-4.093 2.365c-.398.232-.685.604-.806 1.047-.122.449-.061.917.172 1.315l1.469 2.547c.321.549.905.857 1.506.857.291 0 .585-.072.856-.223l4.099-2.365v4.728c.001.954.777 1.729 1.73 1.729h1.467z" fill="#d43a2f"/></svg>